<svg width="126" height="127" viewBox="0 0 126 127" fill="none" xmlns="http://www.w3.org/2000/svg">
<path d="M50.6979 58.725L6.64913 102.774C1.78362 107.639 1.78362 115.528 6.64913 120.393C11.5146 125.259 19.4031 125.259 24.2686 120.393L68.3172 76.345" stroke="white" stroke-width="4.10208" stroke-linecap="round" stroke-linejoin="round"/>
<path d="M95.191 78.6143L119.351 102.774C124.216 107.639 124.216 115.528 119.351 120.393C114.485 125.259 106.596 125.259 101.731 120.393L63.0558 81.7184" stroke="white" stroke-width="4.10208" stroke-linecap="round" stroke-linejoin="round"/>
<path d="M30.0309 29.4293L47.6617 47.06M30.0309 29.4293L16.8163 33.8341L3.60168 11.8098L12.4114 3L34.4358 16.2146L30.0309 29.4293Z" stroke="white" stroke-width="4.10208" stroke-linecap="round" stroke-linejoin="round"/>
<path d="M50.6979 58.725C45.4415 45.313 46.4692 27.7149 57.3054 16.8788C68.1416 6.04252 88.1393 3.66413 99.1517 10.2714L80.2098 29.2131L78.4494 48.5931L97.8292 46.8326L116.771 27.8909C123.379 38.9031 121 58.9013 110.164 69.7374C99.3274 80.5735 81.7298 81.6014 68.3178 76.3443" stroke="white" stroke-width="4.10208" stroke-linecap="round" stroke-linejoin="round"/>
</svg>
