<svg width="126" height="127" viewBox="0 0 126 127" fill="none" xmlns="http://www.w3.org/2000/svg">
<path d="M12.3623 75.473C6.43447 72.0141 3 67.906 3 63.5005C3 51.1785 29.8629 41.1901 63 41.1901C96.1373 41.1901 123 51.1785 123 63.5005C123 68.8133 118.005 73.6926 109.667 77.5248" stroke="white" stroke-width="4.39" stroke-linecap="round" stroke-linejoin="round"/>
<path d="M63.0001 56.1367L63.0684 56.0555" stroke="white" stroke-width="4.39" stroke-linecap="round" stroke-linejoin="round"/>
<path d="M95.5514 18.8798C95.5201 11.2721 93.7994 5.88836 90.2374 3.8637C80.3954 -1.73026 60.2214 20.435 45.1777 53.3709C30.1337 86.307 25.9165 117.542 35.7583 123.136C39.2745 125.135 44.1095 123.59 49.5582 119.277" stroke="white" stroke-width="4.39" stroke-linecap="round" stroke-linejoin="round"/>
<path d="M47.0062 5.87763C42.6038 3.00814 38.7147 2.1834 35.758 3.86389C25.9162 9.45785 30.1333 40.6926 45.1773 73.6288C60.2214 106.565 80.3947 128.73 90.2367 123.136C98.9847 118.164 96.6254 92.9332 85.4274 64.2562" stroke="white" stroke-width="4.39" stroke-linecap="round" stroke-linejoin="round"/>
</svg>
